<svg xmlns="http://www.w3.org/2000/svg" viewBox="0 0 880 220" shape-rendering="crispEdges">
  <rect width="880" height="220" fill="#ffffff"/>
  <g fill="#e8336d" opacity="0.45" transform="translate(6 6)">
    <rect x="195" y="48" width="56" height="14"/>
    <rect x="195" y="62" width="14" height="14"/>
    <rect x="251" y="62" width="14" height="14"/>
    <rect x="195" y="76" width="14" height="14"/>
    <rect x="251" y="76" width="14" height="14"/>
    <rect x="195" y="90" width="56" height="14"/>
    <rect x="195" y="104" width="14" height="14"/>
    <rect x="195" y="118" width="14" height="14"/>
    <rect x="195" y="132" width="14" height="14"/>
    <rect x="293" y="48" width="42" height="14"/>
    <rect x="279" y="62" width="14" height="14"/>
    <rect x="335" y="62" width="14" height="14"/>
    <rect x="279" y="76" width="14" height="14"/>
    <rect x="335" y="76" width="14" height="14"/>
    <rect x="279" y="90" width="14" height="14"/>
    <rect x="335" y="90" width="14" height="14"/>
    <rect x="279" y="104" width="14" height="14"/>
    <rect x="335" y="104" width="14" height="14"/>
    <rect x="279" y="118" width="14" height="14"/>
    <rect x="335" y="118" width="14" height="14"/>
    <rect x="293" y="132" width="42" height="14"/>
    <rect x="377" y="48" width="56" height="14"/>
    <rect x="363" y="62" width="14" height="14"/>
    <rect x="363" y="76" width="14" height="14"/>
    <rect x="377" y="90" width="42" height="14"/>
    <rect x="419" y="104" width="14" height="14"/>
    <rect x="419" y="118" width="14" height="14"/>
    <rect x="363" y="132" width="56" height="14"/>
    <rect x="461" y="48" width="42" height="14"/>
    <rect x="447" y="62" width="14" height="14"/>
    <rect x="503" y="62" width="14" height="14"/>
    <rect x="447" y="76" width="14" height="14"/>
    <rect x="503" y="76" width="14" height="14"/>
    <rect x="447" y="90" width="70" height="14"/>
    <rect x="447" y="104" width="14" height="14"/>
    <rect x="503" y="104" width="14" height="14"/>
    <rect x="447" y="118" width="14" height="14"/>
    <rect x="503" y="118" width="14" height="14"/>
    <rect x="447" y="132" width="14" height="14"/>
    <rect x="503" y="132" width="14" height="14"/>
    <rect x="531" y="48" width="56" height="14"/>
    <rect x="531" y="62" width="14" height="14"/>
    <rect x="587" y="62" width="14" height="14"/>
    <rect x="531" y="76" width="14" height="14"/>
    <rect x="587" y="76" width="14" height="14"/>
    <rect x="531" y="90" width="56" height="14"/>
    <rect x="531" y="104" width="14" height="14"/>
    <rect x="559" y="104" width="14" height="14"/>
    <rect x="531" y="118" width="14" height="14"/>
    <rect x="573" y="118" width="14" height="14"/>
    <rect x="531" y="132" width="14" height="14"/>
    <rect x="587" y="132" width="14" height="14"/>
    <rect x="629" y="48" width="42" height="14"/>
    <rect x="615" y="62" width="14" height="14"/>
    <rect x="671" y="62" width="14" height="14"/>
    <rect x="615" y="76" width="14" height="14"/>
    <rect x="671" y="76" width="14" height="14"/>
    <rect x="615" y="90" width="70" height="14"/>
    <rect x="615" y="104" width="14" height="14"/>
    <rect x="671" y="104" width="14" height="14"/>
    <rect x="615" y="118" width="14" height="14"/>
    <rect x="671" y="118" width="14" height="14"/>
    <rect x="615" y="132" width="14" height="14"/>
    <rect x="671" y="132" width="14" height="14"/>
  </g>
  <g fill="#000000">
    <rect x="195" y="48" width="56" height="14"/>
    <rect x="195" y="62" width="14" height="14"/>
    <rect x="251" y="62" width="14" height="14"/>
    <rect x="195" y="76" width="14" height="14"/>
    <rect x="251" y="76" width="14" height="14"/>
    <rect x="195" y="90" width="56" height="14"/>
    <rect x="195" y="104" width="14" height="14"/>
    <rect x="195" y="118" width="14" height="14"/>
    <rect x="195" y="132" width="14" height="14"/>
    <rect x="293" y="48" width="42" height="14"/>
    <rect x="279" y="62" width="14" height="14"/>
    <rect x="335" y="62" width="14" height="14"/>
    <rect x="279" y="76" width="14" height="14"/>
    <rect x="335" y="76" width="14" height="14"/>
    <rect x="279" y="90" width="14" height="14"/>
    <rect x="335" y="90" width="14" height="14"/>
    <rect x="279" y="104" width="14" height="14"/>
    <rect x="335" y="104" width="14" height="14"/>
    <rect x="279" y="118" width="14" height="14"/>
    <rect x="335" y="118" width="14" height="14"/>
    <rect x="293" y="132" width="42" height="14"/>
    <rect x="377" y="48" width="56" height="14"/>
    <rect x="363" y="62" width="14" height="14"/>
    <rect x="363" y="76" width="14" height="14"/>
    <rect x="377" y="90" width="42" height="14"/>
    <rect x="419" y="104" width="14" height="14"/>
    <rect x="419" y="118" width="14" height="14"/>
    <rect x="363" y="132" width="56" height="14"/>
    <rect x="461" y="48" width="42" height="14"/>
    <rect x="447" y="62" width="14" height="14"/>
    <rect x="503" y="62" width="14" height="14"/>
    <rect x="447" y="76" width="14" height="14"/>
    <rect x="503" y="76" width="14" height="14"/>
    <rect x="447" y="90" width="70" height="14"/>
    <rect x="447" y="104" width="14" height="14"/>
    <rect x="503" y="104" width="14" height="14"/>
    <rect x="447" y="118" width="14" height="14"/>
    <rect x="503" y="118" width="14" height="14"/>
    <rect x="447" y="132" width="14" height="14"/>
    <rect x="503" y="132" width="14" height="14"/>
    <rect x="531" y="48" width="56" height="14"/>
    <rect x="531" y="62" width="14" height="14"/>
    <rect x="587" y="62" width="14" height="14"/>
    <rect x="531" y="76" width="14" height="14"/>
    <rect x="587" y="76" width="14" height="14"/>
    <rect x="531" y="90" width="56" height="14"/>
    <rect x="531" y="104" width="14" height="14"/>
    <rect x="559" y="104" width="14" height="14"/>
    <rect x="531" y="118" width="14" height="14"/>
    <rect x="573" y="118" width="14" height="14"/>
    <rect x="531" y="132" width="14" height="14"/>
    <rect x="587" y="132" width="14" height="14"/>
    <rect x="629" y="48" width="42" height="14"/>
    <rect x="615" y="62" width="14" height="14"/>
    <rect x="671" y="62" width="14" height="14"/>
    <rect x="615" y="76" width="14" height="14"/>
    <rect x="671" y="76" width="14" height="14"/>
    <rect x="615" y="90" width="70" height="14"/>
    <rect x="615" y="104" width="14" height="14"/>
    <rect x="671" y="104" width="14" height="14"/>
    <rect x="615" y="118" width="14" height="14"/>
    <rect x="671" y="118" width="14" height="14"/>
    <rect x="615" y="132" width="14" height="14"/>
    <rect x="671" y="132" width="14" height="14"/>
  </g>
  <text x="440" y="180" text-anchor="middle"
        font-family="ui-monospace, Menlo, monospace" font-size="15"
        fill="#000000" letter-spacing="4">1-BIT VISUALAUDIO TOOLKIT &#183; MYRIAD CORE</text>
</svg>
